<svg width="92" height="92" viewBox="0 0 92 92" fill="none" xmlns="http://www.w3.org/2000/svg">
<g opacity="0.4">
<path d="M80.5 34.5H74.75V48.875C74.75 56.8129 68.3129 63.25 60.375 63.25H34.5V69C34.5 75.3509 39.6491 80.5 46 80.5H63.25L75.785 90.9362C77.004 91.9511 78.8181 91.7873 79.833 90.5683C80.2642 90.0508 80.5 89.3981 80.5 88.7225V80.5C86.8509 80.5 92 75.3509 92 69V46C92 39.6491 86.8509 34.5 80.5 34.5Z" fill="url(#paint0_linear_46_629)"/>
</g>
<path d="M57.5 0H11.5C5.14912 0 0 5.14913 0 11.5V46C0 52.3509 5.14912 57.5 11.5 57.5V68.5113C11.5 70.0983 12.788 71.3863 14.375 71.3863C15.0592 71.3863 15.7234 71.1419 16.2437 70.6963L31.625 57.5H57.5C63.8509 57.5 69 52.3509 69 46V11.5C69 5.14913 63.8509 0 57.5 0ZM21.3037 32.8038C21.0507 33.0826 20.7604 33.3241 20.4412 33.5225C20.1308 33.7324 19.8059 33.9164 19.4638 34.0688C19.1073 34.201 18.7421 34.3074 18.3713 34.385C18.0033 34.4655 17.6266 34.5029 17.25 34.5C14.0731 34.5 11.5 31.9269 11.5 28.75C11.4396 25.576 13.9639 22.9511 17.1379 22.8908C17.5519 22.8821 17.9659 22.9195 18.3713 23C18.7421 23.0776 19.1073 23.184 19.4638 23.3163C19.8116 23.46 20.1394 23.6411 20.4412 23.8625C20.7546 24.0609 21.0421 24.2909 21.3037 24.5525C22.4193 25.6623 23.0316 27.1774 23 28.75C22.9942 30.2738 22.3848 31.7314 21.3037 32.8038ZM38.5537 32.8038C37.4814 33.8848 36.0238 34.4943 34.5 34.5C34.1263 34.5431 33.7525 34.5431 33.3787 34.5C33.0079 34.4224 32.6427 34.316 32.2862 34.1838C31.9441 34.0314 31.6193 33.8474 31.3088 33.6375C30.9868 33.4305 30.6877 33.1919 30.4175 32.9188C29.3193 31.8119 28.7184 30.3083 28.75 28.75C28.7069 28.3763 28.7069 28.0025 28.75 27.6288C28.8276 27.2579 28.934 26.8928 29.0662 26.5363C29.21 26.1884 29.3911 25.8606 29.6125 25.5588C29.8166 25.2425 30.0495 24.9435 30.3025 24.6675C30.5785 24.4145 30.8775 24.1816 31.1938 23.9775C31.4956 23.7561 31.8234 23.575 32.1712 23.4313C32.5622 23.253 32.9647 23.1093 33.3787 23C36.4924 22.379 39.5197 24.403 40.1408 27.5166C40.2212 27.922 40.2586 28.336 40.25 28.75C40.25 30.268 39.652 31.7256 38.5825 32.8038H38.5537ZM55.8037 32.8038C55.5508 33.0826 55.2604 33.3241 54.9413 33.5225C54.6308 33.7324 54.3059 33.9164 53.9638 34.0688C53.6073 34.201 53.2421 34.3074 52.8712 34.385C52.5033 34.4655 52.1266 34.5029 51.75 34.5C48.5731 34.5 46 31.9269 46 28.75C45.9396 25.576 48.4639 22.9511 51.6379 22.8908C52.0519 22.8821 52.4659 22.9195 52.8712 23C53.2421 23.0776 53.6073 23.184 53.9638 23.3163C54.3116 23.46 54.6394 23.6411 54.9413 23.8625C55.2546 24.0609 55.5421 24.2909 55.8037 24.5525C56.9193 25.6623 57.5316 27.1774 57.5 28.75C57.4943 30.2738 56.8848 31.7314 55.8037 32.8038Z" fill="url(#paint1_linear_46_629)"/>
<defs>
<linearGradient id="paint0_linear_46_629" x1="73" y1="75" x2="63" y2="35" gradientUnits="userSpaceOnUse">
<stop stop-color="#19ABFD"/>
<stop offset="0.5028" stop-color="#EAF6FF"/>
<stop offset="1" stop-color="#EAF6FF"/>
</linearGradient>
<linearGradient id="paint1_linear_46_629" x1="2.83994" y1="45.3399" x2="69.0637" y2="44.8807" gradientUnits="userSpaceOnUse">
<stop stop-color="#5558FF"/>
<stop offset="1" stop-color="#00C0FF"/>
</linearGradient>
</defs>
</svg>
